<?plantuml 1.2026.1beta2?><svg xmlns="http://www.w3.org/2000/svg" xmlns:xlink="http://www.w3.org/1999/xlink" contentStyleType="text/css" data-diagram-type="CLASS" height="398px" preserveAspectRatio="none" style="width:221px;height:398px;background:#FFFFFF;" version="1.1" viewBox="0 0 221 398" width="221px" zoomAndPan="magnify"><defs/><g><!--class Users--><g class="entity" data-qualified-name="Users" data-source-line="1" id="ent0002"><rect fill="#F1F1F1" height="162.0781" rx="2.5" ry="2.5" style="stroke:#181818;stroke-width:0.5;" width="207.2275" x="7" y="7"/><ellipse cx="86.7617" cy="23" fill="#ADD1B2" rx="11" ry="11" style="stroke:#181818;stroke-width:1;"/><path d="M90.8711,29 L83.1523,29 L83.1523,16.6094 L90.8711,16.6094 L90.8711,18.7656 L85.6055,18.7656 L85.6055,21.4375 L90.3711,21.4375 L90.3711,23.5938 L85.6055,23.5938 L85.6055,26.8438 L90.8711,26.8438 L90.8711,29 Z " fill="#000000"/><text fill="#000000" font-family="sans-serif" font-size="14" lengthAdjust="spacing" textLength="39.2041" x="107.2617" y="27.8467">Users</text><line style="stroke:#181818;stroke-width:0.5;" x1="8" x2="213.2275" y1="39" y2="39"/><text fill="#000000" font-family="sans-serif" font-size="14" lengthAdjust="spacing" textLength="115.958" x="13" y="55.9951">id : Integer &#171;PK&#187;</text><text fill="#000000" font-family="sans-serif" font-size="14" lengthAdjust="spacing" textLength="163.5977" x="13" y="72.292">email : String &#171;unique&#187;</text><text fill="#000000" font-family="sans-serif" font-size="14" lengthAdjust="spacing" textLength="195.2275" x="13" y="88.5889">username : String &#171;unique&#187;</text><text fill="#000000" font-family="sans-serif" font-size="14" lengthAdjust="spacing" textLength="129.459" x="13" y="104.8857">first_name : String</text><text fill="#000000" font-family="sans-serif" font-size="14" lengthAdjust="spacing" textLength="127.3535" x="13" y="121.1826">last_name : String</text><text fill="#000000" font-family="sans-serif" font-size="14" lengthAdjust="spacing" textLength="180.2295" x="13" y="137.4795">hashed_password : String</text><text fill="#000000" font-family="sans-serif" font-size="14" lengthAdjust="spacing" textLength="103.1475" x="13" y="153.7764">role : UserRole</text><line style="stroke:#181818;stroke-width:0.5;" x1="8" x2="213.2275" y1="161.0781" y2="161.0781"/></g><!--class Task--><g class="entity" data-qualified-name="Task" data-source-line="11" id="ent0003"><rect fill="#F1F1F1" height="145.7813" rx="2.5" ry="2.5" style="stroke:#181818;stroke-width:0.5;" width="188.1895" x="16.52" y="246.08"/><ellipse cx="90.0986" cy="262.08" fill="#ADD1B2" rx="11" ry="11" style="stroke:#181818;stroke-width:1;"/><path d="M94.208,268.08 L86.4892,268.08 L86.4892,255.6894 L94.208,255.6894 L94.208,257.8456 L88.9424,257.8456 L88.9424,260.5175 L93.708,260.5175 L93.708,262.6738 L88.9424,262.6738 L88.9424,265.9238 L94.208,265.9238 L94.208,268.08 Z " fill="#000000"/><text fill="#000000" font-family="sans-serif" font-size="14" lengthAdjust="spacing" textLength="32.5322" x="110.5986" y="266.9267">Task</text><line style="stroke:#181818;stroke-width:0.5;" x1="17.52" x2="203.7095" y1="278.08" y2="278.08"/><text fill="#000000" font-family="sans-serif" font-size="14" lengthAdjust="spacing" textLength="115.958" x="22.52" y="295.0751">id : Integer &#171;PK&#187;</text><text fill="#000000" font-family="sans-serif" font-size="14" lengthAdjust="spacing" textLength="176.0869" x="22.52" y="311.372">student_id : Integer &#171;FK&#187;</text><text fill="#000000" font-family="sans-serif" font-size="14" lengthAdjust="spacing" textLength="176.1895" x="22.52" y="327.6689">teacher_id : Integer &#171;FK&#187;</text><text fill="#000000" font-family="sans-serif" font-size="14" lengthAdjust="spacing" textLength="84.8682" x="22.52" y="343.9657">task : String</text><text fill="#000000" font-family="sans-serif" font-size="14" lengthAdjust="spacing" textLength="133.2393" x="22.52" y="360.2626">description : String</text><text fill="#000000" font-family="sans-serif" font-size="14" lengthAdjust="spacing" textLength="170.249" x="22.52" y="376.5595">task_status : TaskStatus</text><line style="stroke:#181818;stroke-width:0.5;" x1="17.52" x2="203.7095" y1="383.8613" y2="383.8613"/></g><!--link Users to Task--><g class="link" data-entity-1="ent0002" data-entity-2="ent0003" data-link-type="crowfoot" data-source-line="20" id="lnk4"><path codeLine="20" d="M52.9017,177.13 C47.8617,192.26 48.52,200.61 52.61,216.08 C55.24,226.02 51.4771,219.6891 55.9671,229.3091" fill="none" id="Users-Task" style="stroke:#181818;stroke-width:1;"/><line style="stroke:#181818;stroke-width:1;" x1="50.3709" x2="57.9608" y1="172.0708" y2="174.5991"/><line style="stroke:#181818;stroke-width:1;" x1="49.4227" x2="57.0127" y1="174.9171" y2="177.4454"/><line style="stroke:#181818;stroke-width:1;" x1="52.9017" x2="55.43" y1="177.13" y2="169.54"/><line style="stroke:#181818;stroke-width:1;" x1="60.1965" x2="69.017" y1="238.3707" y2="243.0824"/><line style="stroke:#181818;stroke-width:1;" x1="60.1965" x2="58.143" y1="238.3707" y2="248.1576"/><line style="stroke:#181818;stroke-width:1;" x1="60.1965" x2="63.58" y1="238.3707" y2="245.62"/><ellipse cx="57.6589" cy="232.9338" fill="none" rx="4" ry="4" style="stroke:#181818;stroke-width:1;"/><text fill="#000000" font-family="sans-serif" font-size="13" lengthAdjust="spacing" textLength="68.0596" x="53.61" y="212.1469">student_id</text></g><!--link Users to Task--><g class="link" data-entity-1="ent0002" data-entity-2="ent0003" data-link-type="crowfoot" data-source-line="21" id="lnk5"><path codeLine="21" d="M126.4948,177.5334 C127.9748,192.9434 127.79,201.01 126.61,216.08 C125.86,225.72 127.1148,217.9914 125.7748,227.9314" fill="none" id="Users-Task-1" style="stroke:#181818;stroke-width:1;"/><line style="stroke:#181818;stroke-width:1;" x1="122.1307" x2="130.0941" y1="173.9341" y2="173.1693"/><line style="stroke:#181818;stroke-width:1;" x1="122.4175" x2="130.3809" y1="176.9203" y2="176.1555"/><line style="stroke:#181818;stroke-width:1;" x1="126.4948" x2="125.73" y1="177.5334" y2="169.57"/><line style="stroke:#181818;stroke-width:1;" x1="124.4388" x2="129.3162" y1="237.8417" y2="246.5716"/><line style="stroke:#181818;stroke-width:1;" x1="124.4388" x2="117.4238" y1="237.8417" y2="244.9684"/><line style="stroke:#181818;stroke-width:1;" x1="124.4388" x2="123.37" y1="237.8417" y2="245.77"/><ellipse cx="125.2404" cy="231.8955" fill="none" rx="4" ry="4" style="stroke:#181818;stroke-width:1;"/><text fill="#000000" font-family="sans-serif" font-size="13" lengthAdjust="spacing" textLength="68.1548" x="127.61" y="212.1469">teacher_id</text></g><?plantuml-src XP3H2e8m58RlznJ3Urz0nCiWkeciQndkf2FTREUC2EtTsxGGGsbNs__zRDyPQ5Bqv1S4Yxndt2ybUSBtcg02ozFqUCYoCOTMgCQZdApIbITEgxk33tN-1YrQs2nSbKKg5fKnRyHgN0kiGHQTG7mOAvVGcYRKW_N9RzcBCPW6EGky_Pa3oKdVBdxuxii9H5c3tURXYOME12ojwaWPlGIXMY09SkX1SCl7Gn2UldmOujZqatR2ezajMY_CSj4R?></g></svg>